<mxfile host="app.diagrams.net" modified="2024-03-26T02:57:40.503Z" agent="Mozilla/5.0 (Macintosh; Intel Mac OS X 10_15_7) AppleWebKit/537.36 (KHTML, like Gecko) Chrome/123.0.0.0 Safari/537.36" version="24.0.9" etag="pdUzMiIoVtH1nxgkjW-q" type="github">
  <diagram name="Page-1" id="WqqXzyBaBFRU_ee5OWou">
    <mxGraphModel>
      <root>
        <mxCell id="0" />
        <mxCell id="1" parent="0" />
      </root>
    </mxGraphModel>
  </diagram>
</mxfile>
